<?xml version="1.0" encoding="UTF-8" standalone="no"?>
<!-- Created with Inkscape (http://www.inkscape.org/) -->

<svg
   xmlns:dc="http://purl.org/dc/elements/1.1/"
   xmlns:cc="http://creativecommons.org/ns#"
   xmlns:rdf="http://www.w3.org/1999/02/22-rdf-syntax-ns#"
   xmlns:svg="http://www.w3.org/2000/svg"
   xmlns="http://www.w3.org/2000/svg"
   xmlns:sodipodi="http://sodipodi.sourceforge.net/DTD/sodipodi-0.dtd"
   xmlns:inkscape="http://www.inkscape.org/namespaces/inkscape"
   width="32"
   height="32"
   id="svg2"
   version="1.1"
   inkscape:version="0.48.2 r9819"
   sodipodi:docname="button_pressed.svg">
  <defs
     id="defs4" />
  <sodipodi:namedview
     id="base"
     pagecolor="#ffffff"
     bordercolor="#666666"
     borderopacity="1.0"
     inkscape:pageopacity="0.0"
     inkscape:pageshadow="2"
     inkscape:zoom="11.313708"
     inkscape:cx="27.760777"
     inkscape:cy="19.717628"
     inkscape:document-units="px"
     inkscape:current-layer="layer1"
     showgrid="true"
     inkscape:window-width="1089"
     inkscape:window-height="928"
     inkscape:window-x="0"
     inkscape:window-y="0"
     inkscape:window-maximized="0"
     showguides="true"
     inkscape:guide-bbox="true"
     inkscape:snap-global="true">
    <sodipodi:guide
       orientation="0,1"
       position="24,2"
       id="guide3786" />
    <sodipodi:guide
       orientation="0,1"
       position="-4.9375,32.1875"
       id="guide3801" />
    <sodipodi:guide
       orientation="1,0"
       position="0,11.3125"
       id="guide3807" />
    <sodipodi:guide
       orientation="1,0"
       position="9,39"
       id="guide3809" />
    <sodipodi:guide
       orientation="1,0"
       position="31.9375,19.875"
       id="guide3845" />
    <sodipodi:guide
       orientation="0,1"
       position="-4.9375,32.1875"
       id="guide3865" />
    <sodipodi:guide
       orientation="1,0"
       position="2,22"
       id="guide3887" />
    <sodipodi:guide
       orientation="-0.70710678,0.70710678"
       position="19.25,19.25"
       id="guide3890" />
    <sodipodi:guide
       orientation="1,0"
       position="30,34"
       id="guide3934" />
    <sodipodi:guide
       orientation="0,1"
       position="36,30"
       id="guide4168" />
    <inkscape:grid
       type="xygrid"
       id="grid3012" />
    <sodipodi:guide
       orientation="0,1"
       position="13,23"
       id="guide3848" />
  </sodipodi:namedview>
  <metadata
     id="metadata7">
    <rdf:RDF>
      <cc:Work
         rdf:about="">
        <dc:format>image/svg+xml</dc:format>
        <dc:type
           rdf:resource="http://purl.org/dc/dcmitype/StillImage" />
        <dc:title />
      </cc:Work>
    </rdf:RDF>
  </metadata>
  <g
     inkscape:label="Layer 1"
     inkscape:groupmode="layer"
     id="layer1"
     transform="translate(0,-1020.3622)">
    <rect
       style="fill:#000000;fill-opacity:1;stroke:#000000;stroke-opacity:1"
       id="rect2985"
       width="32"
       height="32"
       x="0"
       y="1020.3622"
       rx="0"
       ry="0" />
    <rect
       style="fill:#bbbbbb;fill-opacity:1;stroke:#bbbbbb;stroke-width:0.79270297;stroke-linecap:butt;stroke-linejoin:miter;stroke-miterlimit:4;stroke-opacity:1;stroke-dasharray:none"
       id="rect3912"
       width="0.9375"
       height="30.999981"
       x="31"
       y="1021.3622"
       rx="0"
       ry="0" />
    <rect
       style="fill:#bbbbbb;fill-opacity:1;stroke:#bbbbbb;stroke-width:0.9333331;stroke-opacity:1"
       id="rect3776"
       width="28"
       height="27.999985"
       x="2"
       y="1022.3622"
       rx="7.0000172"
       ry="7.0000172" />
    <path
       style="fill:none;fill-opacity:1;stroke:#8a8a8a;stroke-width:1.50544286000000005;stroke-linecap:butt;stroke-linejoin:miter;stroke-miterlimit:4;stroke-opacity:1"
       d="M 25.123245,1027.239 C 25.665498,1027.7812 26,1028.5312 26,1029.3622 l 0,14 c 0,1.662 -1.338008,3 -3.000017,3 l -13.9999656,0 c -0.8310048,0 -1.5810092,-0.3345 -2.1232623,-0.8767"
       id="rect3017"
       inkscape:connector-curvature="0"
       sodipodi:nodetypes="cssssc" />
    <path
       style="fill:none;fill-opacity:1;stroke:#ffffff;stroke-width:1.50544286000000005;stroke-linecap:butt;stroke-linejoin:miter;stroke-miterlimit:4;stroke-opacity:1"
       d="m 6.876738,1045.4855 c -0.542253,-0.5423 -0.876755,-1.2923 -0.876755,-2.1233 l 0,-14 c 0,-1.662 1.338008,-3 3.000017,-3 l 13.999966,0 c 0.831004,0 1.581009,0.3345 2.123262,0.8768"
       id="rect3017-7"
       inkscape:connector-curvature="0"
       sodipodi:nodetypes="cssssc" />
    <path
       style="fill:none;stroke:#000000;stroke-width:1.38269758;stroke-linecap:butt;stroke-linejoin:miter;stroke-miterlimit:4;stroke-opacity:1"
       d="M 4.15195,1048.1009 C 2.821018,1046.7023 2,1044.7679 2,1042.6246 l 0,-12.5248 c 0,-4.2866 3.2840709,-7.7376 7.3633879,-7.7376 l 13.2732241,0 c 2.039659,0 3.880505,0.8628 5.211438,2.2613"
       id="rect3852-8"
       inkscape:connector-curvature="0"
       sodipodi:nodetypes="cssssc" />
    <path
       style="fill:none;stroke:#606060;stroke-width:1.38269758000000009;stroke-linecap:butt;stroke-linejoin:miter;stroke-miterlimit:4;stroke-opacity:1"
       d="m 27.84805,1024.6235 c 1.330932,1.3986 2.15195,3.333 2.15195,5.4763 l 0,12.5248 c 0,4.2866 -3.28407,7.7376 -7.363388,7.7376 l -13.273224,0 c -2.039658,0 -3.880505,-0.8627 -5.211438,-2.2613"
       id="rect3852-8-0"
       inkscape:connector-curvature="0"
       sodipodi:nodetypes="cssssc" />
    <path
       style="fill:none;stroke:#8a8a8a;stroke-width:1.16981756999999997;stroke-linecap:butt;stroke-linejoin:miter;stroke-miterlimit:4;stroke-opacity:1"
       d="M 27.246495,1025.1157 C 28.330998,1026.2002 29,1027.7002 29,1029.3622 l 0,14 c 0,3.324 -2.676008,6 -6.000017,6 l -13.9999658,0 c -1.6620047,0 -3.1620091,-0.669 -4.2465122,-1.7535"
       id="rect3891"
       inkscape:connector-curvature="0"
       sodipodi:nodetypes="cssssc" />
    <path
       style="fill:none;stroke:#606060;stroke-width:1.16981757;stroke-linecap:butt;stroke-linejoin:miter;stroke-miterlimit:4;stroke-opacity:1"
       d="m 4.753488,1047.6087 c -1.084503,-1.0845 -1.753505,-2.5845 -1.753505,-4.2465 l 0,-14 c 0,-3.324 2.676008,-6 6.000017,-6 l 13.999966,0 c 1.662005,0 3.162009,0.669 4.246512,1.7535"
       id="rect3891-2"
       inkscape:connector-curvature="0"
       sodipodi:nodetypes="cssssc" />
    <rect
       style="fill:#bbbbbb;fill-opacity:1;stroke:#bbbbbb;stroke-width:0.79270297;stroke-linecap:butt;stroke-linejoin:miter;stroke-miterlimit:4;stroke-opacity:1;stroke-dasharray:none"
       id="rect3912-4"
       width="0.9375"
       height="30.999981"
       x="-1052.3622"
       y="1.0000172"
       rx="0"
       ry="0"
       transform="matrix(0,-1,1,0,0,0)" />
  </g>
</svg>
