<?xml version="1.0" encoding="UTF-8" standalone="no"?>
<!-- Created with Inkscape (http://www.inkscape.org/) -->

<svg
   xmlns:dc="http://purl.org/dc/elements/1.1/"
   xmlns:cc="http://creativecommons.org/ns#"
   xmlns:rdf="http://www.w3.org/1999/02/22-rdf-syntax-ns#"
   xmlns:svg="http://www.w3.org/2000/svg"
   xmlns="http://www.w3.org/2000/svg"
   xmlns:sodipodi="http://sodipodi.sourceforge.net/DTD/sodipodi-0.dtd"
   xmlns:inkscape="http://www.inkscape.org/namespaces/inkscape"
   width="128"
   height="128"
   id="svg2"
   version="1.1"
   inkscape:version="0.48.2 r9819"
   sodipodi:docname="ic_launcher.svg">
  <defs
     id="defs4" />
  <sodipodi:namedview
     id="base"
     pagecolor="#3b3b3b"
     bordercolor="#666666"
     borderopacity="1.0"
     inkscape:pageopacity="1"
     inkscape:pageshadow="2"
     inkscape:zoom="3.3710938"
     inkscape:cx="55.099439"
     inkscape:cy="55.789184"
     inkscape:document-units="px"
     inkscape:current-layer="layer1"
     showgrid="true"
     inkscape:window-width="1024"
     inkscape:window-height="816"
     inkscape:window-x="0"
     inkscape:window-y="0"
     inkscape:window-maximized="0">
    <inkscape:grid
       type="xygrid"
       id="grid3006"
       empspacing="5"
       visible="true"
       enabled="true"
       snapvisiblegridlinesonly="true" />
  </sodipodi:namedview>
  <metadata
     id="metadata7">
    <rdf:RDF>
      <cc:Work
         rdf:about="">
        <dc:format>image/svg+xml</dc:format>
        <dc:type
           rdf:resource="http://purl.org/dc/dcmitype/StillImage" />
        <dc:title />
      </cc:Work>
    </rdf:RDF>
  </metadata>
  <g
     inkscape:label="Layer 1"
     inkscape:groupmode="layer"
     id="layer1"
     transform="translate(0,-924.36218)">
    <path
       inkscape:connector-curvature="0"
       style="fill:#ffffff;fill-opacity:1;stroke:#ffffff;stroke-width:1;stroke-linecap:round;stroke-linejoin:round;stroke-miterlimit:4;stroke-opacity:1;stroke-dasharray:none"
       d="m 64,924.86217 c -35.063882,0 -63.5,28.43612 -63.5,63.5 0,35.06393 28.436118,63.50003 63.5,63.50003 35.063882,0 63.5,-28.4361 63.5,-63.50003 0,-35.06388 -28.436118,-63.5 -63.5,-63.5 z m 0,45.78125 c 9.777597,0 17.71875,7.94115 17.71875,17.71875 0,9.7776 -7.941153,17.71873 -17.71875,17.71873 -9.777597,0 -17.71875,-7.94113 -17.71875,-17.71873 0,-9.7776 7.941153,-17.71875 17.71875,-17.71875 z"
       id="path3004" />
    <path
       style="fill:#000000;fill-opacity:1;stroke:none"
       d="m 64,928.87782 c -32.853724,0 -59.5,26.64627 -59.5,59.5 0,32.85368 26.646276,59.46868 59.5,59.46868 32.853724,0 59.5,-26.615 59.5,-59.46868 0,-32.85373 -26.646276,-59.5 -59.5,-59.5 z m 0,38.40625 c 11.638866,0 21.0625,9.45488 21.0625,21.09375 0,11.63888 -9.423634,21.06248 -21.0625,21.06248 -11.638867,0 -21.0625,-9.4236 -21.0625,-21.06248 0,-11.63887 9.423633,-21.09375 21.0625,-21.09375 z"
       id="path3757"
       inkscape:connector-curvature="0" />
    <path
       sodipodi:type="spiral"
       style="fill:none;stroke:#ffffff;stroke-width:2.04608607;stroke-linecap:round;stroke-linejoin:round;stroke-miterlimit:4;stroke-opacity:1;stroke-dasharray:none"
       id="path3808"
       sodipodi:cx="0"
       sodipodi:cy="-7"
       sodipodi:expansion="1"
       sodipodi:revolution="4.8815989"
       sodipodi:radius="22.724569"
       sodipodi:argument="-30.671989"
       sodipodi:t0="0.48787266"
       d="M -11.086696,-6.9999952 C -11.514561,-13.402536 -6.3085509,-18.86895 -5.2872387e-6,-19.250483 7.0366754,-19.676054 13.030824,-13.942484 13.41427,-7.0000058 13.837942,0.67077171 7.5764242,7.1930036 6.2918068e-6,7.5780577 -8.3048379,8.0001323 -15.355421,1.2103691 -15.741845,-6.9999932 -16.162558,-15.938882 -8.8443173,-23.518026 -7.2963751e-6,-23.905632 9.5729099,-24.32517 17.680784,-16.478268 18.069419,-7.0000078 18.487933,3.2069252 10.11222,11.843666 8.3009435e-6,12.233206 -10.840931,12.650819 -20.006651,3.7461735 -20.396994,-6.9999912 -20.813808,-18.474928 -11.380128,-28.169723 -9.3055119e-6,-28.560781 12.10892,-28.976883 22.332868,-19.014083 22.724568,-7.0000098"
       transform="matrix(2.40524,0,0,2.4827544,63.434616,1007.7497)"
       inkscape:transform-center-x="-4.2274059"
       inkscape:transform-center-y="0.00054624013" />
  </g>
</svg>
