<?xml version="1.0" encoding="UTF-8" standalone="no"?>
<!-- Created with Inkscape (http://www.inkscape.org/) -->

<svg
   xmlns:dc="http://purl.org/dc/elements/1.1/"
   xmlns:cc="http://creativecommons.org/ns#"
   xmlns:rdf="http://www.w3.org/1999/02/22-rdf-syntax-ns#"
   xmlns:svg="http://www.w3.org/2000/svg"
   xmlns="http://www.w3.org/2000/svg"
   xmlns:sodipodi="http://sodipodi.sourceforge.net/DTD/sodipodi-0.dtd"
   xmlns:inkscape="http://www.inkscape.org/namespaces/inkscape"
   width="128"
   height="128"
   id="svg2"
   version="1.1"
   inkscape:version="0.48.2 r9819"
   sodipodi:docname="ic_launcher.svg">
  <defs
     id="defs4" />
  <sodipodi:namedview
     id="base"
     pagecolor="#3b3b3b"
     bordercolor="#666666"
     borderopacity="1.0"
     inkscape:pageopacity="1"
     inkscape:pageshadow="2"
     inkscape:zoom="3.3710938"
     inkscape:cx="58.726942"
     inkscape:cy="56.456401"
     inkscape:document-units="px"
     inkscape:current-layer="layer1"
     showgrid="false"
     inkscape:window-width="1213"
     inkscape:window-height="816"
     inkscape:window-x="0"
     inkscape:window-y="0"
     inkscape:window-maximized="0"
     showguides="false">
    <inkscape:grid
       type="xygrid"
       id="grid3006"
       empspacing="5"
       visible="true"
       enabled="true"
       snapvisiblegridlinesonly="true" />
  </sodipodi:namedview>
  <metadata
     id="metadata7">
    <rdf:RDF>
      <cc:Work
         rdf:about="">
        <dc:format>image/svg+xml</dc:format>
        <dc:type
           rdf:resource="http://purl.org/dc/dcmitype/StillImage" />
        <dc:title />
      </cc:Work>
    </rdf:RDF>
  </metadata>
  <g
     inkscape:label="Layer 1"
     inkscape:groupmode="layer"
     id="layer1"
     transform="translate(0,-924.36218)">
    <path
       inkscape:connector-curvature="0"
       style="fill:#ffffff;fill-opacity:1;stroke:#ffffff;stroke-width:1;stroke-linecap:round;stroke-linejoin:round;stroke-miterlimit:4;stroke-opacity:1;stroke-dasharray:none"
       d="m 64,924.86217 c -35.063882,0 -63.5,28.43612 -63.5,63.5 0,35.06393 28.436118,63.50003 63.5,63.50003 35.063882,0 63.5,-28.4361 63.5,-63.50003 0,-35.06388 -28.436118,-63.5 -63.5,-63.5 z m 0,45.78125 c 9.777597,0 17.71875,7.94115 17.71875,17.71875 0,9.7776 -7.941153,17.71873 -17.71875,17.71873 -9.777597,0 -17.71875,-7.94113 -17.71875,-17.71873 0,-9.7776 7.941153,-17.71875 17.71875,-17.71875 z"
       id="path3004" />
    <path
       style="fill:#000000;fill-opacity:1;stroke:none"
       d="m 64,928.87782 c -32.853724,0 -59.5,26.64627 -59.5,59.5 0,32.85368 26.646276,59.46868 59.5,59.46868 32.853724,0 59.5,-26.615 59.5,-59.46868 0,-32.85373 -26.646276,-59.5 -59.5,-59.5 z m 0,38.40625 c 11.638866,0 21.0625,9.45488 21.0625,21.09375 0,11.63888 -9.423634,21.06248 -21.0625,21.06248 -11.638867,0 -21.0625,-9.4236 -21.0625,-21.06248 0,-11.63887 9.423633,-21.09375 21.0625,-21.09375 z"
       id="path3757"
       inkscape:connector-curvature="0" />
    <path
       sodipodi:type="spiral"
       style="fill:none;stroke:#ffffff;stroke-width:2.03810054;stroke-linecap:round;stroke-linejoin:round;stroke-miterlimit:4;stroke-opacity:1;stroke-dasharray:none"
       id="path3808"
       sodipodi:cx="0"
       sodipodi:cy="-7"
       sodipodi:expansion="1"
       sodipodi:revolution="4.9042678"
       sodipodi:radius="22.4058"
       sodipodi:argument="-30.814423"
       sodipodi:t0="0.49023989"
       d="M -10.984217,-7.0000012 C -11.403903,-13.339986 -6.2477144,-18.751751 1.2717775e-6,-19.126375 6.9623361,-19.543849 12.892063,-13.869866 13.268533,-6.9999986 13.684174,0.58464532 7.4920244,7.0326671 -1.5113493e-6,7.4106916 -8.2069258,7.8247877 -15.173499,1.1141872 -15.55285,-7.0000016 -15.965627,-15.829185 -8.7363531,-23.314513 1.750921e-6,-23.695008 9.4514291,-24.106647 17.455673,-16.358521 17.837166,-6.9999981 18.247812,3.0736608 9.980691,11.596953 -1.9904926e-6,11.979325 -10.695883,12.389095 -19.738333,3.6028619 -20.121483,-7.0000021 -20.530478,-18.318098 -11.225034,-27.879797 2.2300641e-6,-28.263641 11.940307,-28.671944 22.021331,-18.847206 22.405799,-6.9999977"
       transform="matrix(2.4485434,0,0,2.457995,62.49891,1004.6445)"
       inkscape:transform-center-x="-4.3035153"
       inkscape:transform-center-y="0.00059274358" />
  </g>
</svg>
